<svg preserveAspectRatio="none" overflow="visible" style="display: block;" width="24" height="24" viewBox="0 0 24 24" fill="none" xmlns="http://www.w3.org/2000/svg">
<g id="Arrow">
<path id="Vector" d="M14.6807 12.3369L9.99316 17.0244C9.94434 17.0635 9.89307 17.0952 9.83936 17.1196C9.78564 17.144 9.72461 17.1562 9.65625 17.1562C9.5293 17.1562 9.41943 17.1099 9.32666 17.0171C9.23389 16.9243 9.1875 16.8145 9.1875 16.6875C9.1875 16.6191 9.19971 16.5581 9.22412 16.5044C9.24854 16.4507 9.28027 16.3994 9.31934 16.3506L13.6846 12L9.31934 7.64941C9.28027 7.60059 9.24854 7.54932 9.22412 7.49561C9.19971 7.44189 9.1875 7.38086 9.1875 7.3125C9.1875 7.18555 9.23389 7.07568 9.32666 6.98291C9.41943 6.89014 9.5293 6.84375 9.65625 6.84375C9.72461 6.84375 9.78564 6.85596 9.83936 6.88037C9.89307 6.90479 9.94434 6.93652 9.99316 6.97559L14.6807 11.6631C14.7197 11.7119 14.7515 11.7632 14.7759 11.8169C14.8003 11.8706 14.8125 11.9316 14.8125 12C14.8125 12.0684 14.8003 12.1294 14.7759 12.1831C14.7515 12.2368 14.7197 12.2881 14.6807 12.3369Z" fill="#182237"/>
</g>
</svg>
